<svg width="38" height="32" viewBox="0 0 38 32" fill="none" xmlns="http://www.w3.org/2000/svg">
<path fill-rule="evenodd" clip-rule="evenodd" d="M0 2.63889C0 1.18148 1.21524 0 2.71429 0H35.2857C36.7848 0 38 1.18148 38 2.63889C38 4.09629 36.7848 5.27778 35.2857 5.27778H2.71429C1.21524 5.27778 0 4.09629 0 2.63889Z" fill="#395B64"/>
<path fill-rule="evenodd" clip-rule="evenodd" d="M0 15.8333C0 14.3759 1.21524 13.1945 2.71429 13.1945H35.2857C36.7848 13.1945 38 14.3759 38 15.8333C38 17.2908 36.7848 18.4722 35.2857 18.4722H2.71429C1.21524 18.4722 0 17.2908 0 15.8333Z" fill="#395B64"/>
<path fill-rule="evenodd" clip-rule="evenodd" d="M0 29.0278C0 27.5703 1.21524 26.3889 2.71429 26.3889H35.2857C36.7848 26.3889 38 27.5703 38 29.0278C38 30.4852 36.7848 31.6667 35.2857 31.6667H2.71429C1.21524 31.6667 0 30.4852 0 29.0278Z" fill="#395B64"/>
</svg>
